<svg width="1200" height="630" viewBox="0 0 1200 630" fill="none" xmlns="http://www.w3.org/2000/svg">
  <defs>
    <linearGradient id="bg" x1="72" y1="52" x2="1108" y2="592" gradientUnits="userSpaceOnUse">
      <stop stop-color="#06142C" />
      <stop offset="0.52" stop-color="#050B1A" />
      <stop offset="1" stop-color="#0A1020" />
    </linearGradient>
    <radialGradient id="blueGlow" cx="0" cy="0" r="1" gradientUnits="userSpaceOnUse" gradientTransform="translate(220 150) rotate(42) scale(390 290)">
      <stop stop-color="#21CFFF" stop-opacity="0.42" />
      <stop offset="1" stop-color="#21CFFF" stop-opacity="0" />
    </radialGradient>
    <radialGradient id="goldGlow" cx="0" cy="0" r="1" gradientUnits="userSpaceOnUse" gradientTransform="translate(928 468) rotate(180) scale(310 220)">
      <stop stop-color="#FFC429" stop-opacity="0.3" />
      <stop offset="1" stop-color="#FFC429" stop-opacity="0" />
    </radialGradient>
    <linearGradient id="panelFill" x1="120" y1="118" x2="490" y2="486" gradientUnits="userSpaceOnUse">
      <stop stop-color="#102A4C" stop-opacity="0.96" />
      <stop offset="1" stop-color="#081528" stop-opacity="0.9" />
    </linearGradient>
    <linearGradient id="panelStroke" x1="144" y1="118" x2="498" y2="486" gradientUnits="userSpaceOnUse">
      <stop stop-color="#4AD9FF" stop-opacity="0.55" />
      <stop offset="1" stop-color="#4AD9FF" stop-opacity="0.08" />
    </linearGradient>
    <linearGradient id="arc" x1="0" y1="0" x2="1" y2="1">
      <stop stop-color="#32D2FF" stop-opacity="0.45" />
      <stop offset="1" stop-color="#32D2FF" stop-opacity="0" />
    </linearGradient>
    <filter id="blurSoft" x="-30%" y="-30%" width="160%" height="160%" color-interpolation-filters="sRGB">
      <feGaussianBlur stdDeviation="36" />
    </filter>
  </defs>

  <rect width="1200" height="630" fill="url(#bg)" />
  <circle cx="208" cy="152" r="198" fill="url(#blueGlow)" />
  <circle cx="960" cy="486" r="172" fill="url(#goldGlow)" />

  <g opacity="0.65">
    <path d="M-66 484C122 348 230 314 375 288C511 264 627 268 739 220C853 171 954 98 1260 96" stroke="url(#arc)" stroke-width="2" />
    <path d="M-90 594C78 504 216 434 374 416C531 398 652 430 777 401C907 370 1020 296 1264 246" stroke="url(#arc)" stroke-width="2" />
    <path d="M-40 638C140 584 292 548 456 538C626 528 752 555 888 540C1012 526 1118 486 1262 438" stroke="url(#arc)" stroke-width="2" />
  </g>

  <g filter="url(#blurSoft)" opacity="0.32">
    <circle cx="308" cy="316" r="124" fill="#1B6DFF" />
    <circle cx="398" cy="210" r="52" fill="#3AD7FF" />
  </g>

  <rect x="92" y="118" width="356" height="394" rx="34" fill="url(#panelFill)" />
  <rect x="92.75" y="118.75" width="354.5" height="392.5" rx="33.25" stroke="url(#panelStroke)" stroke-width="1.5" />
  <rect x="122" y="148" width="296" height="296" rx="28" fill="#07101F" />
  <rect x="122.75" y="148.75" width="294.5" height="294.5" rx="27.25" stroke="#183B64" stroke-width="1.5" />
  <image href="icon-master.png" x="133" y="159" width="274" height="274" preserveAspectRatio="xMidYMid meet" />

  <g opacity="0.9">
    <circle cx="146" cy="476" r="8" fill="#24D0FF" />
    <text x="166" y="484" font-family="'SF Pro Display', 'Helvetica Neue', Helvetica, Arial, sans-serif" font-size="24" font-weight="600" fill="#EAF5FF">
      Local-first desktop app
    </text>
  </g>

  <text x="506" y="188" font-family="'SF Pro Display', 'Helvetica Neue', Helvetica, Arial, sans-serif" font-size="78" font-weight="700" letter-spacing="-2.2" fill="#F3F8FF">
    KamehaDB
  </text>
  <text x="506" y="248" font-family="'SF Pro Display', 'Helvetica Neue', Helvetica, Arial, sans-serif" font-size="32" font-weight="500" fill="#9FC6ED">
    Local-first desktop database workspace
  </text>

  <text x="506" y="338" font-family="'SF Pro Display', 'Helvetica Neue', Helvetica, Arial, sans-serif" font-size="24" font-weight="500" fill="#D8E8F8">
    One desktop GUI for SQL, document, cache, vector & ledger systems,
  </text>
  <text x="506" y="372" font-family="'SF Pro Display', 'Helvetica Neue', Helvetica, Arial, sans-serif" font-size="24" font-weight="500" fill="#D8E8F8">
    with AI built in. 12+ engines supported.
  </text>

  <g opacity="0.95">
    <rect x="506" y="462" width="146" height="52" rx="26" fill="#0D2647" stroke="#21D0FF" stroke-opacity="0.32" />
    <circle cx="536" cy="488" r="8" fill="#21D0FF" />
    <text x="557" y="496" font-family="'SF Pro Display', 'Helvetica Neue', Helvetica, Arial, sans-serif" font-size="22" font-weight="600" fill="#EAF5FF">
      AI Built-in
    </text>

    <rect x="671" y="462" width="200" height="52" rx="26" fill="#241809" stroke="#FFC429" stroke-opacity="0.32" />
    <circle cx="701" cy="488" r="8" fill="#FFC429" />
    <text x="722" y="496" font-family="'SF Pro Display', 'Helvetica Neue', Helvetica, Arial, sans-serif" font-size="22" font-weight="600" fill="#FFF2CB">
      Schema Timeline
    </text>

    <rect x="890" y="462" width="166" height="52" rx="26" fill="#0D2647" stroke="#21D0FF" stroke-opacity="0.32" />
    <circle cx="920" cy="488" r="8" fill="#21D0FF" />
    <text x="941" y="496" font-family="'SF Pro Display', 'Helvetica Neue', Helvetica, Arial, sans-serif" font-size="22" font-weight="600" fill="#EAF5FF">
      12+ Engines
    </text>
  </g>
</svg>
